<svg viewBox="0 0 330 200" xmlns="http://www.w3.org/2000/svg"><g><g><g><g><g><line x1="39.15625" y1="177.828125" x2="34.15625" y2="177.828125" style="visibility: inherit;" fill="rgb(0, 0, 0)" stroke="rgb(204, 204, 204)" stroke-width="1px"></line><line x1="39.15625" y1="164.14903846153845" x2="34.15625" y2="164.14903846153845" style="visibility: inherit;" fill="rgb(0, 0, 0)" stroke="rgb(204, 204, 204)" stroke-width="1px"></line><line x1="39.15625" y1="150.4699519230769" x2="34.15625" y2="150.4699519230769" style="visibility: inherit;" fill="rgb(0, 0, 0)" stroke="rgb(204, 204, 204)" stroke-width="1px"></line><line x1="39.15625" y1="136.7908653846154" x2="34.15625" y2="136.7908653846154" style="visibility: inherit;" fill="rgb(0, 0, 0)" stroke="rgb(204, 204, 204)" stroke-width="1px"></line><line x1="39.15625" y1="123.11177884615384" x2="34.15625" y2="123.11177884615384" style="visibility: inherit;" fill="rgb(0, 0, 0)" stroke="rgb(204, 204, 204)" stroke-width="1px"></line><line x1="39.15625" y1="109.4326923076923" x2="34.15625" y2="109.4326923076923" style="visibility: inherit;" fill="rgb(0, 0, 0)" stroke="rgb(204, 204, 204)" stroke-width="1px"></line><line x1="39.15625" y1="95.75360576923076" x2="34.15625" y2="95.75360576923076" style="visibility: inherit;" fill="rgb(0, 0, 0)" stroke="rgb(204, 204, 204)" stroke-width="1px"></line><line x1="39.15625" y1="82.07451923076924" x2="34.15625" y2="82.07451923076924" style="visibility: inherit;" fill="rgb(0, 0, 0)" stroke="rgb(204, 204, 204)" stroke-width="1px"></line><line x1="39.15625" y1="68.39543269230768" x2="34.15625" y2="68.39543269230768" style="visibility: inherit;" fill="rgb(0, 0, 0)" stroke="rgb(204, 204, 204)" stroke-width="1px"></line><line x1="39.15625" y1="54.71634615384616" x2="34.15625" y2="54.71634615384616" style="visibility: inherit;" fill="rgb(0, 0, 0)" stroke="rgb(204, 204, 204)" stroke-width="1px"></line><line x1="39.15625" y1="41.03725961538461" x2="34.15625" y2="41.03725961538461" style="visibility: inherit;" fill="rgb(0, 0, 0)" stroke="rgb(204, 204, 204)" stroke-width="1px"></line><line x1="39.15625" y1="27.358173076923066" x2="34.15625" y2="27.358173076923066" style="visibility: inherit;" fill="rgb(0, 0, 0)" stroke="rgb(204, 204, 204)" stroke-width="1px"></line><line x1="39.15625" y1="13.679086538461519" x2="34.15625" y2="13.679086538461519" style="visibility: inherit;" fill="rgb(0, 0, 0)" stroke="rgb(204, 204, 204)" stroke-width="1px"></line><line x1="39.15625" y1="0" x2="34.15625" y2="0" style="visibility: inherit;" fill="rgb(0, 0, 0)" stroke="rgb(204, 204, 204)" stroke-width="1px"></line></g><g transform="translate(29.15625, 0)"><text style="text-anchor: end; visibility: hidden; font-family: &quot;Helvetica Neue&quot;, sans-serif; font-size: 12px; font-weight: 200;" x="0" y="177.828125" dx="0em" dy="0.3em" fill="rgb(50, 49, 63)" stroke="none" stroke-width="1px">260</text><text style="text-anchor: end; visibility: inherit; font-family: &quot;Helvetica Neue&quot;, sans-serif; font-size: 12px; font-weight: 200;" x="0" y="164.14903846153845" dx="0em" dy="0.3em" fill="rgb(50, 49, 63)" stroke="none" stroke-width="1px">280</text><text style="text-anchor: end; visibility: hidden; font-family: &quot;Helvetica Neue&quot;, sans-serif; font-size: 12px; font-weight: 200;" x="0" y="150.4699519230769" dx="0em" dy="0.3em" fill="rgb(50, 49, 63)" stroke="none" stroke-width="1px">300</text><text style="text-anchor: end; visibility: inherit; font-family: &quot;Helvetica Neue&quot;, sans-serif; font-size: 12px; font-weight: 200;" x="0" y="136.7908653846154" dx="0em" dy="0.3em" fill="rgb(50, 49, 63)" stroke="none" stroke-width="1px">320</text><text style="text-anchor: end; visibility: hidden; font-family: &quot;Helvetica Neue&quot;, sans-serif; font-size: 12px; font-weight: 200;" x="0" y="123.11177884615384" dx="0em" dy="0.3em" fill="rgb(50, 49, 63)" stroke="none" stroke-width="1px">340</text><text style="text-anchor: end; visibility: inherit; font-family: &quot;Helvetica Neue&quot;, sans-serif; font-size: 12px; font-weight: 200;" x="0" y="109.4326923076923" dx="0em" dy="0.3em" fill="rgb(50, 49, 63)" stroke="none" stroke-width="1px">360</text><text style="text-anchor: end; visibility: hidden; font-family: &quot;Helvetica Neue&quot;, sans-serif; font-size: 12px; font-weight: 200;" x="0" y="95.75360576923076" dx="0em" dy="0.3em" fill="rgb(50, 49, 63)" stroke="none" stroke-width="1px">380</text><text style="text-anchor: end; visibility: inherit; font-family: &quot;Helvetica Neue&quot;, sans-serif; font-size: 12px; font-weight: 200;" x="0" y="82.07451923076924" dx="0em" dy="0.3em" fill="rgb(50, 49, 63)" stroke="none" stroke-width="1px">400</text><text style="text-anchor: end; visibility: hidden; font-family: &quot;Helvetica Neue&quot;, sans-serif; font-size: 12px; font-weight: 200;" x="0" y="68.39543269230768" dx="0em" dy="0.3em" fill="rgb(50, 49, 63)" stroke="none" stroke-width="1px">420</text><text style="text-anchor: end; visibility: inherit; font-family: &quot;Helvetica Neue&quot;, sans-serif; font-size: 12px; font-weight: 200;" x="0" y="54.71634615384616" dx="0em" dy="0.3em" fill="rgb(50, 49, 63)" stroke="none" stroke-width="1px">440</text><text style="text-anchor: end; visibility: hidden; font-family: &quot;Helvetica Neue&quot;, sans-serif; font-size: 12px; font-weight: 200;" x="0" y="41.03725961538461" dx="0em" dy="0.3em" fill="rgb(50, 49, 63)" stroke="none" stroke-width="1px">460</text><text style="text-anchor: end; visibility: inherit; font-family: &quot;Helvetica Neue&quot;, sans-serif; font-size: 12px; font-weight: 200;" x="0" y="27.358173076923066" dx="0em" dy="0.3em" fill="rgb(50, 49, 63)" stroke="none" stroke-width="1px">480</text><text style="text-anchor: end; visibility: hidden; font-family: &quot;Helvetica Neue&quot;, sans-serif; font-size: 12px; font-weight: 200;" x="0" y="13.679086538461519" dx="0em" dy="0.3em" fill="rgb(50, 49, 63)" stroke="none" stroke-width="1px">500</text><text style="text-anchor: end; visibility: hidden; font-family: &quot;Helvetica Neue&quot;, sans-serif; font-size: 12px; font-weight: 200;" x="0" y="0" dx="0em" dy="0.3em" fill="rgb(50, 49, 63)" stroke="none" stroke-width="1px">520</text></g><line x1="39.15625" y1="0" x2="39.15625" y2="177.828125" fill="rgb(0, 0, 0)" stroke="rgb(204, 204, 204)" stroke-width="1px"></line></g></g><g transform="translate(39, 0)" clip-path="url(#clip_0)"><clipPath id="clip_0"><rect width="290" height="177"></rect></clipPath><g><g><g><line x1="0" y1="0" x2="0" y2="177.828125" fill="rgb(0, 0, 0)" stroke="rgb(60, 60, 60)" stroke-width="1px" opacity="0.25"></line><line x1="24.236979166666664" y1="0" x2="24.236979166666664" y2="177.828125" fill="rgb(0, 0, 0)" stroke="rgb(60, 60, 60)" stroke-width="1px" opacity="0.25"></line><line x1="48.47395833333333" y1="0" x2="48.47395833333333" y2="177.828125" fill="rgb(0, 0, 0)" stroke="rgb(60, 60, 60)" stroke-width="1px" opacity="0.25"></line><line x1="72.7109375" y1="0" x2="72.7109375" y2="177.828125" fill="rgb(0, 0, 0)" stroke="rgb(60, 60, 60)" stroke-width="1px" opacity="0.25"></line><line x1="96.94791666666666" y1="0" x2="96.94791666666666" y2="177.828125" fill="rgb(0, 0, 0)" stroke="rgb(60, 60, 60)" stroke-width="1px" opacity="0.25"></line><line x1="121.18489583333334" y1="0" x2="121.18489583333334" y2="177.828125" fill="rgb(0, 0, 0)" stroke="rgb(60, 60, 60)" stroke-width="1px" opacity="0.25"></line><line x1="145.421875" y1="0" x2="145.421875" y2="177.828125" fill="rgb(0, 0, 0)" stroke="rgb(60, 60, 60)" stroke-width="1px" opacity="0.25"></line><line x1="169.65885416666669" y1="0" x2="169.65885416666669" y2="177.828125" fill="rgb(0, 0, 0)" stroke="rgb(60, 60, 60)" stroke-width="1px" opacity="0.25"></line><line x1="193.89583333333331" y1="0" x2="193.89583333333331" y2="177.828125" fill="rgb(0, 0, 0)" stroke="rgb(60, 60, 60)" stroke-width="1px" opacity="0.25"></line><line x1="218.1328125" y1="0" x2="218.1328125" y2="177.828125" fill="rgb(0, 0, 0)" stroke="rgb(60, 60, 60)" stroke-width="1px" opacity="0.25"></line><line x1="242.36979166666669" y1="0" x2="242.36979166666669" y2="177.828125" fill="rgb(0, 0, 0)" stroke="rgb(60, 60, 60)" stroke-width="1px" opacity="0.25"></line><line x1="266.6067708333333" y1="0" x2="266.6067708333333" y2="177.828125" fill="rgb(0, 0, 0)" stroke="rgb(60, 60, 60)" stroke-width="1px" opacity="0.25"></line><line x1="290.84375" y1="0" x2="290.84375" y2="177.828125" fill="rgb(0, 0, 0)" stroke="rgb(60, 60, 60)" stroke-width="1px" opacity="0.25"></line></g><g><line x1="0" y1="177.828125" x2="290.84375" y2="177.828125" fill="rgb(0, 0, 0)" stroke="rgb(60, 60, 60)" stroke-width="1px" opacity="0.25"></line><line x1="0" y1="164.14903846153845" x2="290.84375" y2="164.14903846153845" fill="rgb(0, 0, 0)" stroke="rgb(60, 60, 60)" stroke-width="1px" opacity="0.25"></line><line x1="0" y1="150.4699519230769" x2="290.84375" y2="150.4699519230769" fill="rgb(0, 0, 0)" stroke="rgb(60, 60, 60)" stroke-width="1px" opacity="0.25"></line><line x1="0" y1="136.7908653846154" x2="290.84375" y2="136.7908653846154" fill="rgb(0, 0, 0)" stroke="rgb(60, 60, 60)" stroke-width="1px" opacity="0.25"></line><line x1="0" y1="123.11177884615384" x2="290.84375" y2="123.11177884615384" fill="rgb(0, 0, 0)" stroke="rgb(60, 60, 60)" stroke-width="1px" opacity="0.25"></line><line x1="0" y1="109.4326923076923" x2="290.84375" y2="109.4326923076923" fill="rgb(0, 0, 0)" stroke="rgb(60, 60, 60)" stroke-width="1px" opacity="0.25"></line><line x1="0" y1="95.75360576923076" x2="290.84375" y2="95.75360576923076" fill="rgb(0, 0, 0)" stroke="rgb(60, 60, 60)" stroke-width="1px" opacity="0.25"></line><line x1="0" y1="82.07451923076924" x2="290.84375" y2="82.07451923076924" fill="rgb(0, 0, 0)" stroke="rgb(60, 60, 60)" stroke-width="1px" opacity="0.25"></line><line x1="0" y1="68.39543269230768" x2="290.84375" y2="68.39543269230768" fill="rgb(0, 0, 0)" stroke="rgb(60, 60, 60)" stroke-width="1px" opacity="0.25"></line><line x1="0" y1="54.71634615384616" x2="290.84375" y2="54.71634615384616" fill="rgb(0, 0, 0)" stroke="rgb(60, 60, 60)" stroke-width="1px" opacity="0.25"></line><line x1="0" y1="41.03725961538461" x2="290.84375" y2="41.03725961538461" fill="rgb(0, 0, 0)" stroke="rgb(60, 60, 60)" stroke-width="1px" opacity="0.25"></line><line x1="0" y1="27.358173076923066" x2="290.84375" y2="27.358173076923066" fill="rgb(0, 0, 0)" stroke="rgb(60, 60, 60)" stroke-width="1px" opacity="0.25"></line><line x1="0" y1="13.679086538461519" x2="290.84375" y2="13.679086538461519" fill="rgb(0, 0, 0)" stroke="rgb(60, 60, 60)" stroke-width="1px" opacity="0.25"></line><line x1="0" y1="0" x2="290.84375" y2="0" fill="rgb(0, 0, 0)" stroke="rgb(60, 60, 60)" stroke-width="1px" opacity="0.25"></line></g></g></g><g><g><line x1="0" y1="355.65625" x2="290.84375" y2="355.65625" fill="rgb(0, 0, 0)" stroke="rgb(153, 153, 153)" stroke-width="1.5px"></line></g></g><g><g><line x1="24.236979166666664" y1="0" x2="24.236979166666664" y2="177.828125" fill="rgb(0, 0, 0)" stroke="rgb(153, 153, 153)" stroke-width="1.5px"></line></g></g><g><g><g><g><g><path style="fill: none;" stroke="rgb(255, 112, 67)" stroke-width="2px" d="M24.236979166666664,14.090715666917646L26.660677083333333,19.77306730540903L29.084375,18.025747332093886L31.508072916666666,33.63943428038479L33.93177083333333,47.39248459904229L36.35546875,50.74448786966933L38.77916666666667,64.73378415577821L41.20286458333333,71.55719873321581L43.6265625,77.95893566468047L46.05026041666667,75.18482967264849L48.47395833333333,73.76096373672745L50.89765625,77.0330614434955L53.321354166666666,82.1431719097265L55.745052083333334,83.22068393137219L58.16875,88.95727347601886L60.59244791666667,93.21354158722289L63.01614583333333,94.40919076758249L65.43984375000001,97.71352525986356L67.86354166666666,90.63640409352121L70.28723958333333,95.97004228253896L72.7109375,103.33323769061921L75.13463541666667,102.62006586377275L77.55833333333334,104.74972062773267L79.98203125,107.14648969755441L82.40572916666666,103.94325936041095L84.82942708333334,102.21420711121512L87.253125,113.81404068778004L89.67682291666667,112.11556875245401L92.10052083333333,109.06696459296292L94.52421875,110.16181674785976L96.94791666666666,109.79535106962413L99.37161458333334,107.83781679176359L101.7953125,108.87351587735999L104.21901041666666,112.7258514715772L106.64270833333333,113.62217193638665L109.06640625,118.97449509425651L111.49010416666667,120.62790577591622L113.91380208333334,125.27708737043558L116.3375,124.04359732786072L118.76119791666666,123.8491722860627L121.18489583333334,130.18107443777714L123.60859375,132.48266299398114L126.03229166666667,131.90056201010538L128.45598958333332,132.1400181125472L130.87968750000002,132.40509533683758L133.30338541666666,132.58786132767972L135.72708333333333,131.7707177242823L138.15078125,134.82531373881557L140.57447916666666,134.51294110856293L142.99817708333333,134.9431553385585L145.421875,133.59571111295617L147.84557291666667,135.58516213290258L150.26927083333334,133.82286763819093L152.69296875,132.76121622682263L155.11666666666667,139.67971654282073L157.54036458333331,138.2010009808254L159.9640625,141.29874904081453L162.38776041666668,147.0914627558588L164.81145833333332,141.99795813599778L167.23515625,139.48668109110406L169.65885416666669,143.55850083365286L172.08255208333333,135.7914453416352L174.50625,137.52828896421977L176.92994791666666,139.5824421549413L179.35364583333333,143.55758090147356L181.77734375,147.1940367376239L184.20104166666667,149.50390120405697L186.62473958333334,143.61337073177725L189.0484375,136.40577020365373L191.47213541666667,140.7547643270579L193.89583333333331,138.26883465035297L196.31953125,139.69918616853585L198.74322916666668,143.9893750278544L201.16692708333332,143.24218542625857L203.590625,149.79554517225787L206.01432291666669,147.8857711910435L208.43802083333333,146.21578672386116L210.86171875,152.85737805235377L213.28541666666666,154.5167545530814L215.70911458333333,146.8946394248056L218.1328125,151.38619475365704L220.55651041666667,144.10142279332112L222.98020833333334,143.12904951858886L225.40390625,149.36708477668984L227.82760416666667,149.48121597268457L230.25130208333331,152.56942985492373L232.675,151.58189386078328L235.09869791666668,153.40132985102758L237.52239583333332,148.7784662135927L239.94609375,147.17333142129434L242.36979166666669,147.99822504510425L244.79348958333333,147.77073446157766L247.2171875,149.42034442303802L249.64088541666666,148.48318263091352L252.06458333333333,146.25079966846343L254.48828125,142.78591836728597L256.91197916666664,143.59961043692243L259.33567708333334,144.16011176955516L261.75937500000003,151.6234303914004L264.1830729166667,148.63060648547875" fill="none"></path></g></g></g></g><g opacity="0.20000000298023224"><g><g><g><path style="fill: none;" stroke="rgb(255, 112, 67)" stroke-width="2px" d="M24.236979166666664,14.090715666917646L26.660677083333333,23.182478288503802L29.084375,16.348320157711328L31.508072916666666,52.00113013157478L33.93177083333333,65.34846709508162L36.35546875,55.381515114124L38.77916666666667,84.7387016736544L41.20286458333333,81.50580269189982L43.6265625,87.40025416520925L46.05026041666667,71.06560557988973L48.47395833333333,71.6380791920882L50.89765625,81.92340139242319L53.321354166666666,89.79165221177615L55.745052083333334,84.83484100561876L58.16875,97.55541464732244L60.59244791666667,99.59494190399464L63.01614583333333,96.20215857945956L65.43984375000001,102.6691880281155L67.86354166666666,80.02180047218617L70.28723958333333,103.97001205040858L72.7109375,114.377626987604L75.13463541666667,101.55033159072583L77.55833333333334,107.9441607273542L79.98203125,110.74161491027245L82.40572916666666,99.13843662188603L84.82942708333334,99.62063611103939L87.253125,131.21376137183262L89.67682291666667,109.56786345701951L92.10052083333333,104.49406116192158L94.52421875,111.80409437509684L96.94791666666666,109.24565267379468L99.37161458333334,104.90151576445653L101.7953125,110.42706438211295L104.21901041666666,118.50435458696805L106.64270833333333,114.96665259507986L109.06640625,127.00297969304597L111.49010416666667,123.1080217728248L113.91380208333334,132.25085971905634L116.3375,122.19336227086873L118.76119791666666,123.55753472401545L121.18489583333334,139.67892765265245L123.60859375,135.9350458255181L126.03229166666667,131.02741053471198L128.45598958333332,132.49920226610624L130.87968750000002,132.80271117320427L133.30338541666666,132.86201031391437L135.72708333333333,130.54500231926258L138.15078125,139.40720776044407L140.57447916666666,134.0443821631945L142.99817708333333,135.58847668354326L145.421875,131.574544774569L147.84557291666667,138.56933866280775L150.26927083333334,131.17942589613108L152.69296875,131.1687391097729L155.11666666666667,150.05746701680698L157.54036458333331,135.98292763783382L159.9640625,145.9453711307966L162.38776041666668,155.78053332842313L164.81145833333332,134.35770120620728L167.23515625,135.7197655237638L169.65885416666669,149.66623044747573L172.08255208333333,124.14086210360894L174.50625,140.13355439809652L176.92994791666666,142.6636719410236L179.35364583333333,149.52028902127194L181.77734375,152.64872049184947L184.20104166666667,152.96869790370647L186.62473958333334,134.77757502335768L189.0484375,125.5943694114685L191.47213541666667,147.27825551216418L193.89583333333331,134.53994013529558L196.31953125,141.84471344581016L198.74322916666668,150.42465831683234L201.16692708333332,142.12140102386473L203.590625,159.62558479125684L206.01432291666669,145.02111021922184L208.43802083333333,143.71081002308773L210.86171875,162.81976504509265L213.28541666666666,157.0058193041728L215.70911458333333,135.46146673239195L218.1328125,158.12352774693414L220.55651041666667,133.17426485281726L222.98020833333334,141.6704896064905L225.40390625,158.72413766384125L227.82760416666667,149.6524127666767L230.25130208333331,157.2017506782825L232.675,150.10058986957256L235.09869791666668,156.1304838363941L237.52239583333332,141.84417075744042L239.94609375,144.76562923284678L242.36979166666669,149.2355654808191L244.79348958333333,147.42949858628788L247.2171875,151.8947593652285L249.64088541666666,147.07743994272673L252.06458333333333,142.90222522478837L254.48828125,137.5885964155197L256.91197916666664,144.82014854137714L259.33567708333334,145.00086376850422L261.75937500000003,162.81840832416827L264.1830729166667,144.1413706265963" fill="none"></path></g></g></g></g></g></g><g transform="translate(39, 177)" clip-path="url(#clip_1)"><clipPath id="clip_1"><rect width="290" height="22"></rect></clipPath><g><g><line x1="0" y1="0" x2="0" y2="5" style="visibility: inherit;" fill="rgb(0, 0, 0)" stroke="rgb(204, 204, 204)" stroke-width="1px"></line><line x1="24.236979166666664" y1="0" x2="24.236979166666664" y2="5" style="visibility: inherit;" fill="rgb(0, 0, 0)" stroke="rgb(204, 204, 204)" stroke-width="1px"></line><line x1="48.47395833333333" y1="0" x2="48.47395833333333" y2="5" style="visibility: inherit;" fill="rgb(0, 0, 0)" stroke="rgb(204, 204, 204)" stroke-width="1px"></line><line x1="72.7109375" y1="0" x2="72.7109375" y2="5" style="visibility: inherit;" fill="rgb(0, 0, 0)" stroke="rgb(204, 204, 204)" stroke-width="1px"></line><line x1="96.94791666666666" y1="0" x2="96.94791666666666" y2="5" style="visibility: inherit;" fill="rgb(0, 0, 0)" stroke="rgb(204, 204, 204)" stroke-width="1px"></line><line x1="121.18489583333334" y1="0" x2="121.18489583333334" y2="5" style="visibility: inherit;" fill="rgb(0, 0, 0)" stroke="rgb(204, 204, 204)" stroke-width="1px"></line><line x1="145.421875" y1="0" x2="145.421875" y2="5" style="visibility: inherit;" fill="rgb(0, 0, 0)" stroke="rgb(204, 204, 204)" stroke-width="1px"></line><line x1="169.65885416666669" y1="0" x2="169.65885416666669" y2="5" style="visibility: inherit;" fill="rgb(0, 0, 0)" stroke="rgb(204, 204, 204)" stroke-width="1px"></line><line x1="193.89583333333331" y1="0" x2="193.89583333333331" y2="5" style="visibility: inherit;" fill="rgb(0, 0, 0)" stroke="rgb(204, 204, 204)" stroke-width="1px"></line><line x1="218.1328125" y1="0" x2="218.1328125" y2="5" style="visibility: inherit;" fill="rgb(0, 0, 0)" stroke="rgb(204, 204, 204)" stroke-width="1px"></line><line x1="242.36979166666669" y1="0" x2="242.36979166666669" y2="5" style="visibility: inherit;" fill="rgb(0, 0, 0)" stroke="rgb(204, 204, 204)" stroke-width="1px"></line><line x1="266.6067708333333" y1="0" x2="266.6067708333333" y2="5" style="visibility: inherit;" fill="rgb(0, 0, 0)" stroke="rgb(204, 204, 204)" stroke-width="1px"></line><line x1="290.84375" y1="0" x2="290.84375" y2="5" style="visibility: inherit;" fill="rgb(0, 0, 0)" stroke="rgb(204, 204, 204)" stroke-width="1px"></line></g><g transform="translate(0, 8)"><text style="text-anchor: middle; visibility: hidden; font-family: &quot;Helvetica Neue&quot;, sans-serif; font-size: 12px; font-weight: 200;" x="0" y="0" dx="0em" dy="0.95em" fill="rgb(50, 49, 63)" stroke="none" stroke-width="1px">-10</text><text style="text-anchor: middle; visibility: inherit; font-family: &quot;Helvetica Neue&quot;, sans-serif; font-size: 12px; font-weight: 200;" x="24.236979166666664" y="0" dx="0em" dy="0.95em" fill="rgb(50, 49, 63)" stroke="none" stroke-width="1px">0</text><text style="text-anchor: middle; visibility: inherit; font-family: &quot;Helvetica Neue&quot;, sans-serif; font-size: 12px; font-weight: 200;" x="48.47395833333333" y="0" dx="0em" dy="0.95em" fill="rgb(50, 49, 63)" stroke="none" stroke-width="1px">10</text><text style="text-anchor: middle; visibility: inherit; font-family: &quot;Helvetica Neue&quot;, sans-serif; font-size: 12px; font-weight: 200;" x="72.7109375" y="0" dx="0em" dy="0.95em" fill="rgb(50, 49, 63)" stroke="none" stroke-width="1px">20</text><text style="text-anchor: middle; visibility: inherit; font-family: &quot;Helvetica Neue&quot;, sans-serif; font-size: 12px; font-weight: 200;" x="96.94791666666666" y="0" dx="0em" dy="0.95em" fill="rgb(50, 49, 63)" stroke="none" stroke-width="1px">30</text><text style="text-anchor: middle; visibility: inherit; font-family: &quot;Helvetica Neue&quot;, sans-serif; font-size: 12px; font-weight: 200;" x="121.18489583333334" y="0" dx="0em" dy="0.95em" fill="rgb(50, 49, 63)" stroke="none" stroke-width="1px">40</text><text style="text-anchor: middle; visibility: inherit; font-family: &quot;Helvetica Neue&quot;, sans-serif; font-size: 12px; font-weight: 200;" x="145.421875" y="0" dx="0em" dy="0.95em" fill="rgb(50, 49, 63)" stroke="none" stroke-width="1px">50</text><text style="text-anchor: middle; visibility: inherit; font-family: &quot;Helvetica Neue&quot;, sans-serif; font-size: 12px; font-weight: 200;" x="169.65885416666669" y="0" dx="0em" dy="0.95em" fill="rgb(50, 49, 63)" stroke="none" stroke-width="1px">60</text><text style="text-anchor: middle; visibility: inherit; font-family: &quot;Helvetica Neue&quot;, sans-serif; font-size: 12px; font-weight: 200;" x="193.89583333333331" y="0" dx="0em" dy="0.95em" fill="rgb(50, 49, 63)" stroke="none" stroke-width="1px">70</text><text style="text-anchor: middle; visibility: inherit; font-family: &quot;Helvetica Neue&quot;, sans-serif; font-size: 12px; font-weight: 200;" x="218.1328125" y="0" dx="0em" dy="0.95em" fill="rgb(50, 49, 63)" stroke="none" stroke-width="1px">80</text><text style="text-anchor: middle; visibility: inherit; font-family: &quot;Helvetica Neue&quot;, sans-serif; font-size: 12px; font-weight: 200;" x="242.36979166666669" y="0" dx="0em" dy="0.95em" fill="rgb(50, 49, 63)" stroke="none" stroke-width="1px">90</text><text style="text-anchor: middle; visibility: inherit; font-family: &quot;Helvetica Neue&quot;, sans-serif; font-size: 12px; font-weight: 200;" x="266.6067708333333" y="0" dx="0em" dy="0.95em" fill="rgb(50, 49, 63)" stroke="none" stroke-width="1px">100</text><text style="text-anchor: middle; visibility: hidden; font-family: &quot;Helvetica Neue&quot;, sans-serif; font-size: 12px; font-weight: 200;" x="290.84375" y="0" dx="0em" dy="0.95em" fill="rgb(50, 49, 63)" stroke="none" stroke-width="1px">110</text></g><line x1="0" y1="0" x2="290.84375" y2="0" fill="rgb(0, 0, 0)" stroke="rgb(204, 204, 204)" stroke-width="1px"></line></g></g></g></g></svg>