<svg viewBox="0 0 330 200" xmlns="http://www.w3.org/2000/svg"><g><g><g><g><g><line x1="78.03125" y1="176.8484321816501" x2="73.03125" y2="176.8484321816501" style="visibility: inherit;" fill="rgb(0, 0, 0)" stroke="rgb(204, 204, 204)" stroke-width="1px"></line><line x1="78.03125" y1="165.12397593234658" x2="73.03125" y2="165.12397593234658" style="visibility: inherit;" fill="rgb(0, 0, 0)" stroke="rgb(204, 204, 204)" stroke-width="1px"></line><line x1="78.03125" y1="153.39951968304308" x2="73.03125" y2="153.39951968304308" style="visibility: inherit;" fill="rgb(0, 0, 0)" stroke="rgb(204, 204, 204)" stroke-width="1px"></line><line x1="78.03125" y1="141.67506343373955" x2="73.03125" y2="141.67506343373955" style="visibility: inherit;" fill="rgb(0, 0, 0)" stroke="rgb(204, 204, 204)" stroke-width="1px"></line><line x1="78.03125" y1="129.95060718443602" x2="73.03125" y2="129.95060718443602" style="visibility: inherit;" fill="rgb(0, 0, 0)" stroke="rgb(204, 204, 204)" stroke-width="1px"></line><line x1="78.03125" y1="118.2261509351325" x2="73.03125" y2="118.2261509351325" style="visibility: inherit;" fill="rgb(0, 0, 0)" stroke="rgb(204, 204, 204)" stroke-width="1px"></line><line x1="78.03125" y1="106.50169468582897" x2="73.03125" y2="106.50169468582897" style="visibility: inherit;" fill="rgb(0, 0, 0)" stroke="rgb(204, 204, 204)" stroke-width="1px"></line><line x1="78.03125" y1="94.77723843652544" x2="73.03125" y2="94.77723843652544" style="visibility: inherit;" fill="rgb(0, 0, 0)" stroke="rgb(204, 204, 204)" stroke-width="1px"></line><line x1="78.03125" y1="83.05278218722192" x2="73.03125" y2="83.05278218722192" style="visibility: inherit;" fill="rgb(0, 0, 0)" stroke="rgb(204, 204, 204)" stroke-width="1px"></line><line x1="78.03125" y1="71.3283259379184" x2="73.03125" y2="71.3283259379184" style="visibility: inherit;" fill="rgb(0, 0, 0)" stroke="rgb(204, 204, 204)" stroke-width="1px"></line><line x1="78.03125" y1="59.60386968861485" x2="73.03125" y2="59.60386968861485" style="visibility: inherit;" fill="rgb(0, 0, 0)" stroke="rgb(204, 204, 204)" stroke-width="1px"></line><line x1="78.03125" y1="47.87941343931135" x2="73.03125" y2="47.87941343931135" style="visibility: inherit;" fill="rgb(0, 0, 0)" stroke="rgb(204, 204, 204)" stroke-width="1px"></line><line x1="78.03125" y1="36.15495719000782" x2="73.03125" y2="36.15495719000782" style="visibility: inherit;" fill="rgb(0, 0, 0)" stroke="rgb(204, 204, 204)" stroke-width="1px"></line><line x1="78.03125" y1="24.43050094070429" x2="73.03125" y2="24.43050094070429" style="visibility: inherit;" fill="rgb(0, 0, 0)" stroke="rgb(204, 204, 204)" stroke-width="1px"></line><line x1="78.03125" y1="12.706044691400763" x2="73.03125" y2="12.706044691400763" style="visibility: inherit;" fill="rgb(0, 0, 0)" stroke="rgb(204, 204, 204)" stroke-width="1px"></line><line x1="78.03125" y1="0.9815884420972338" x2="73.03125" y2="0.9815884420972338" style="visibility: inherit;" fill="rgb(0, 0, 0)" stroke="rgb(204, 204, 204)" stroke-width="1px"></line></g><g transform="translate(68.03125, 0)"><text style="text-anchor: end; visibility: hidden; font-family: &quot;Helvetica Neue&quot;, sans-serif; font-size: 12px; font-weight: 200;" x="0" y="176.8484321816501" dx="0em" dy="0.3em" fill="rgb(50, 49, 63)" stroke="none" stroke-width="1px">-4e+3</text><text style="text-anchor: end; visibility: inherit; font-family: &quot;Helvetica Neue&quot;, sans-serif; font-size: 12px; font-weight: 200;" x="0" y="165.12397593234658" dx="0em" dy="0.3em" fill="rgb(50, 49, 63)" stroke="none" stroke-width="1px">-3.8e+3</text><text style="text-anchor: end; visibility: hidden; font-family: &quot;Helvetica Neue&quot;, sans-serif; font-size: 12px; font-weight: 200;" x="0" y="153.39951968304308" dx="0em" dy="0.3em" fill="rgb(50, 49, 63)" stroke="none" stroke-width="1px">-3.6e+3</text><text style="text-anchor: end; visibility: inherit; font-family: &quot;Helvetica Neue&quot;, sans-serif; font-size: 12px; font-weight: 200;" x="0" y="141.67506343373955" dx="0em" dy="0.3em" fill="rgb(50, 49, 63)" stroke="none" stroke-width="1px">-3.4e+3</text><text style="text-anchor: end; visibility: hidden; font-family: &quot;Helvetica Neue&quot;, sans-serif; font-size: 12px; font-weight: 200;" x="0" y="129.95060718443602" dx="0em" dy="0.3em" fill="rgb(50, 49, 63)" stroke="none" stroke-width="1px">-3.2e+3</text><text style="text-anchor: end; visibility: inherit; font-family: &quot;Helvetica Neue&quot;, sans-serif; font-size: 12px; font-weight: 200;" x="0" y="118.2261509351325" dx="0em" dy="0.3em" fill="rgb(50, 49, 63)" stroke="none" stroke-width="1px">-3e+3</text><text style="text-anchor: end; visibility: hidden; font-family: &quot;Helvetica Neue&quot;, sans-serif; font-size: 12px; font-weight: 200;" x="0" y="106.50169468582897" dx="0em" dy="0.3em" fill="rgb(50, 49, 63)" stroke="none" stroke-width="1px">-2.8e+3</text><text style="text-anchor: end; visibility: inherit; font-family: &quot;Helvetica Neue&quot;, sans-serif; font-size: 12px; font-weight: 200;" x="0" y="94.77723843652544" dx="0em" dy="0.3em" fill="rgb(50, 49, 63)" stroke="none" stroke-width="1px">-2.6e+3</text><text style="text-anchor: end; visibility: hidden; font-family: &quot;Helvetica Neue&quot;, sans-serif; font-size: 12px; font-weight: 200;" x="0" y="83.05278218722192" dx="0em" dy="0.3em" fill="rgb(50, 49, 63)" stroke="none" stroke-width="1px">-2.4e+3</text><text style="text-anchor: end; visibility: inherit; font-family: &quot;Helvetica Neue&quot;, sans-serif; font-size: 12px; font-weight: 200;" x="0" y="71.3283259379184" dx="0em" dy="0.3em" fill="rgb(50, 49, 63)" stroke="none" stroke-width="1px">-2.2e+3</text><text style="text-anchor: end; visibility: hidden; font-family: &quot;Helvetica Neue&quot;, sans-serif; font-size: 12px; font-weight: 200;" x="0" y="59.60386968861485" dx="0em" dy="0.3em" fill="rgb(50, 49, 63)" stroke="none" stroke-width="1px">-2e+3</text><text style="text-anchor: end; visibility: inherit; font-family: &quot;Helvetica Neue&quot;, sans-serif; font-size: 12px; font-weight: 200;" x="0" y="47.87941343931135" dx="0em" dy="0.3em" fill="rgb(50, 49, 63)" stroke="none" stroke-width="1px">-1.8e+3</text><text style="text-anchor: end; visibility: hidden; font-family: &quot;Helvetica Neue&quot;, sans-serif; font-size: 12px; font-weight: 200;" x="0" y="36.15495719000782" dx="0em" dy="0.3em" fill="rgb(50, 49, 63)" stroke="none" stroke-width="1px">-1.6e+3</text><text style="text-anchor: end; visibility: inherit; font-family: &quot;Helvetica Neue&quot;, sans-serif; font-size: 12px; font-weight: 200;" x="0" y="24.43050094070429" dx="0em" dy="0.3em" fill="rgb(50, 49, 63)" stroke="none" stroke-width="1px">-1.4e+3</text><text style="text-anchor: end; visibility: hidden; font-family: &quot;Helvetica Neue&quot;, sans-serif; font-size: 12px; font-weight: 200;" x="0" y="12.706044691400763" dx="0em" dy="0.3em" fill="rgb(50, 49, 63)" stroke="none" stroke-width="1px">-1.2e+3</text><text style="text-anchor: end; visibility: hidden; font-family: &quot;Helvetica Neue&quot;, sans-serif; font-size: 12px; font-weight: 200;" x="0" y="0.9815884420972338" dx="0em" dy="0.3em" fill="rgb(50, 49, 63)" stroke="none" stroke-width="1px">-1e+3</text></g><line x1="78.03125" y1="0" x2="78.03125" y2="177.828125" fill="rgb(0, 0, 0)" stroke="rgb(204, 204, 204)" stroke-width="1px"></line></g></g><g transform="translate(78, 0)" clip-path="url(#clip_0)"><clipPath id="clip_0"><rect width="251" height="177"></rect></clipPath><g><g><g><line x1="1.014331034091279" y1="0" x2="1.014331034091279" y2="177.828125" fill="rgb(0, 0, 0)" stroke="rgb(60, 60, 60)" stroke-width="1px" opacity="0.25"></line><line x1="21.78014483299606" y1="0" x2="21.78014483299606" y2="177.828125" fill="rgb(0, 0, 0)" stroke="rgb(60, 60, 60)" stroke-width="1px" opacity="0.25"></line><line x1="42.545958631900845" y1="0" x2="42.545958631900845" y2="177.828125" fill="rgb(0, 0, 0)" stroke="rgb(60, 60, 60)" stroke-width="1px" opacity="0.25"></line><line x1="63.311772430805625" y1="0" x2="63.311772430805625" y2="177.828125" fill="rgb(0, 0, 0)" stroke="rgb(60, 60, 60)" stroke-width="1px" opacity="0.25"></line><line x1="84.0775862297104" y1="0" x2="84.0775862297104" y2="177.828125" fill="rgb(0, 0, 0)" stroke="rgb(60, 60, 60)" stroke-width="1px" opacity="0.25"></line><line x1="104.84340002861518" y1="0" x2="104.84340002861518" y2="177.828125" fill="rgb(0, 0, 0)" stroke="rgb(60, 60, 60)" stroke-width="1px" opacity="0.25"></line><line x1="125.60921382751997" y1="0" x2="125.60921382751997" y2="177.828125" fill="rgb(0, 0, 0)" stroke="rgb(60, 60, 60)" stroke-width="1px" opacity="0.25"></line><line x1="146.37502762642475" y1="0" x2="146.37502762642475" y2="177.828125" fill="rgb(0, 0, 0)" stroke="rgb(60, 60, 60)" stroke-width="1px" opacity="0.25"></line><line x1="167.14084142532954" y1="0" x2="167.14084142532954" y2="177.828125" fill="rgb(0, 0, 0)" stroke="rgb(60, 60, 60)" stroke-width="1px" opacity="0.25"></line><line x1="187.90665522423433" y1="0" x2="187.90665522423433" y2="177.828125" fill="rgb(0, 0, 0)" stroke="rgb(60, 60, 60)" stroke-width="1px" opacity="0.25"></line><line x1="208.6724690231391" y1="0" x2="208.6724690231391" y2="177.828125" fill="rgb(0, 0, 0)" stroke="rgb(60, 60, 60)" stroke-width="1px" opacity="0.25"></line><line x1="229.43828282204387" y1="0" x2="229.43828282204387" y2="177.828125" fill="rgb(0, 0, 0)" stroke="rgb(60, 60, 60)" stroke-width="1px" opacity="0.25"></line><line x1="250.20409662094866" y1="0" x2="250.20409662094866" y2="177.828125" fill="rgb(0, 0, 0)" stroke="rgb(60, 60, 60)" stroke-width="1px" opacity="0.25"></line></g><g><line x1="0" y1="176.8484321816501" x2="251.96875" y2="176.8484321816501" fill="rgb(0, 0, 0)" stroke="rgb(60, 60, 60)" stroke-width="1px" opacity="0.25"></line><line x1="0" y1="165.12397593234658" x2="251.96875" y2="165.12397593234658" fill="rgb(0, 0, 0)" stroke="rgb(60, 60, 60)" stroke-width="1px" opacity="0.25"></line><line x1="0" y1="153.39951968304308" x2="251.96875" y2="153.39951968304308" fill="rgb(0, 0, 0)" stroke="rgb(60, 60, 60)" stroke-width="1px" opacity="0.25"></line><line x1="0" y1="141.67506343373955" x2="251.96875" y2="141.67506343373955" fill="rgb(0, 0, 0)" stroke="rgb(60, 60, 60)" stroke-width="1px" opacity="0.25"></line><line x1="0" y1="129.95060718443602" x2="251.96875" y2="129.95060718443602" fill="rgb(0, 0, 0)" stroke="rgb(60, 60, 60)" stroke-width="1px" opacity="0.25"></line><line x1="0" y1="118.2261509351325" x2="251.96875" y2="118.2261509351325" fill="rgb(0, 0, 0)" stroke="rgb(60, 60, 60)" stroke-width="1px" opacity="0.25"></line><line x1="0" y1="106.50169468582897" x2="251.96875" y2="106.50169468582897" fill="rgb(0, 0, 0)" stroke="rgb(60, 60, 60)" stroke-width="1px" opacity="0.25"></line><line x1="0" y1="94.77723843652544" x2="251.96875" y2="94.77723843652544" fill="rgb(0, 0, 0)" stroke="rgb(60, 60, 60)" stroke-width="1px" opacity="0.25"></line><line x1="0" y1="83.05278218722192" x2="251.96875" y2="83.05278218722192" fill="rgb(0, 0, 0)" stroke="rgb(60, 60, 60)" stroke-width="1px" opacity="0.25"></line><line x1="0" y1="71.3283259379184" x2="251.96875" y2="71.3283259379184" fill="rgb(0, 0, 0)" stroke="rgb(60, 60, 60)" stroke-width="1px" opacity="0.25"></line><line x1="0" y1="59.60386968861485" x2="251.96875" y2="59.60386968861485" fill="rgb(0, 0, 0)" stroke="rgb(60, 60, 60)" stroke-width="1px" opacity="0.25"></line><line x1="0" y1="47.87941343931135" x2="251.96875" y2="47.87941343931135" fill="rgb(0, 0, 0)" stroke="rgb(60, 60, 60)" stroke-width="1px" opacity="0.25"></line><line x1="0" y1="36.15495719000782" x2="251.96875" y2="36.15495719000782" fill="rgb(0, 0, 0)" stroke="rgb(60, 60, 60)" stroke-width="1px" opacity="0.25"></line><line x1="0" y1="24.43050094070429" x2="251.96875" y2="24.43050094070429" fill="rgb(0, 0, 0)" stroke="rgb(60, 60, 60)" stroke-width="1px" opacity="0.25"></line><line x1="0" y1="12.706044691400763" x2="251.96875" y2="12.706044691400763" fill="rgb(0, 0, 0)" stroke="rgb(60, 60, 60)" stroke-width="1px" opacity="0.25"></line><line x1="0" y1="0.9815884420972338" x2="251.96875" y2="0.9815884420972338" fill="rgb(0, 0, 0)" stroke="rgb(60, 60, 60)" stroke-width="1px" opacity="0.25"></line></g></g></g><g><g><line x1="0" y1="-57.64069280442041" x2="251.96875" y2="-57.64069280442041" fill="rgb(0, 0, 0)" stroke="rgb(153, 153, 153)" stroke-width="1.5px"></line></g></g><g><g><line x1="21.78014483299606" y1="0" x2="21.78014483299606" y2="177.828125" fill="rgb(0, 0, 0)" stroke="rgb(153, 153, 153)" stroke-width="1.5px"></line></g></g><g><g><g><g><g><path style="fill: none;" stroke="rgb(255, 112, 67)" stroke-width="2px" d="M21.78014483299606,16.733292366057782L23.85672621288654,14.860006527424389L25.933307592777016,22.56896720035101L28.009888972667497,17.17081555733614L30.086470352557974,30.46587785532887L32.16305173244845,33.39228270693036L34.239633112338936,39.454975211891735L36.316214492229406,30.323451143812264L38.39279587211989,38.32997632536623L40.46937725201036,26.74747071656634L42.545958631900845,37.91707832124973L44.62254001179132,30.86143997908775L46.6991213916818,37.77322698465741L48.77570277157228,30.89750674467689L50.852284151462754,41.39744956648457L52.92886553135324,53.68506384447588L55.00544691124371,61.45082015734555L57.08202829113419,66.33168169654375L59.15860967102467,56.88919073320821L61.23519105091515,64.46030304382127L63.311772430805625,71.43927803174407L65.3883538106961,68.51405445455717L67.46493519058659,64.17577437300768L69.54151657047706,61.01091613817029L71.61809795036754,59.61379948457105L73.69467933025801,61.21642429605744L75.7712607101485,65.20667718502656L77.84784209003897,55.01940075452757L79.92442346992945,49.769276225206L82.00100484981994,57.67706484608813L84.0775862297104,54.87643002062384L86.15416760960089,51.70591264649117L88.23074898949136,60.923668596509145L90.30733036938184,68.66949422638734L92.38391174927233,77.21736347381376L94.4604931291628,83.49033004177254L96.53707450905327,74.31094561817561L98.61365588894375,69.3064962619131L100.69023726883424,78.70970112091217L102.76681864872472,75.3307769941082L104.84340002861518,90.97343184103072L106.91998140850566,91.25685647930426L108.99656278839615,81.1792441617658L111.07314416828663,93.40888855889217L113.1497255481771,105.18340294033645L115.22630692806757,111.61259222624557L117.30288830795806,109.433648130913L119.37946968784854,108.39465035543905L121.45605106773903,99.24387375524023L123.53263244762948,110.94665307958056L125.60921382751997,118.70495772658035L127.68579520741045,123.82820888554271L129.76237658730093,110.37690488674617L131.83895796719142,111.57127671635848L133.9155393470819,103.84075540192931L135.99212072697236,105.89924249402284L138.06870210686284,117.68102127975172L140.1452834867533,126.01541385296782L142.22186486664378,113.78886730765078L144.29844624653427,116.61717849895271L146.37502762642475,111.1829135457307L148.45160900631524,120.31902061450427L150.52819038620572,129.91365616708407L152.6047717660962,119.0815398454516L154.68135314598666,111.04618308918448L156.75793452587715,108.52867011794426L158.83451590576763,115.51470632403868L160.9110972856581,128.58104872372758L162.98767866554857,119.03365156595623L165.06426004543906,128.27236329768095L167.14084142532954,128.40833179775782L169.21742280522002,136.30358745777065L171.2940041851105,126.44245321267167L173.37058556500097,135.9633664990031L175.44716694489145,142.90546529645832L177.52374832478193,128.61333902916505L179.6003297046724,135.424093538978L181.67691108456287,124.71184367974757L183.75349246445336,121.17141784714633L185.83007384434384,125.51045777447521L187.90665522423433,123.26146819934928L189.98323660412478,127.10354117005724L192.05981798401527,122.76189415844631L194.13639936390575,129.7378991702252L196.21298074379624,131.95459500391095L198.28956212368672,143.44948135415027L200.36614350357718,149.32591030953577L202.44272488346766,144.91243305704242L204.51930626335815,134.31048245581746L206.59588764324863,134.6351374725906L208.6724690231391,145.25692794730304L210.74905040302957,151.17293163303657L212.82563178292006,138.8324263783857L214.90221316281054,129.2975639667099L216.97879454270102,142.15495197020604L219.0553759225915,138.3339739303559L221.13195730248196,133.26068728410732L223.20853868237245,139.74602473042648L225.2851200622629,142.18067532803173L227.3617014421534,142.28939772803258" fill="none"></path></g></g></g></g><g opacity="0.20000000298023224"><g><g><g><path style="fill: none;" stroke="rgb(255, 112, 67)" stroke-width="2px" d="M21.78014483299606,16.733292366057782L23.85672621288654,13.736035024244387L25.933307592777016,29.96956944636051L28.009888972667497,10.822589225150637L30.086470352557974,47.823911191588195L32.16305173244845,37.440554122441824L34.239633112338936,48.12472249706653L36.316214492229406,17.009601389921357L38.39279587211989,50.13804578070702L40.46937725201036,9.548799759032164L42.545958631900845,54.570182209383546L44.62254001179132,20.31637893812581L46.6991213916818,48.11833930921597L48.77570277157228,20.597396636435235L50.852284151462754,57.13502151056174L52.92886553135324,72.10781908386818L55.00544691124371,73.09616841883907L57.08202829113419,73.65173475512505L59.15860967102467,42.72689275666454L61.23519105091515,75.8162794800865L63.311772430805625,81.90735777005362L65.3883538106961,64.12631534450466L67.46493519058659,57.66843990245587L69.54151657047706,56.26366627667721L71.61809795036754,57.518134434279375L73.69467933025801,63.620354678824256L75.7712607101485,71.19204630851668L77.84784209003897,39.738501748648076L79.92442346992945,41.8940942673303L82.00100484981994,69.53874340689677L84.0775862297104,50.675478711148415L86.15416760960089,46.950137216119L88.23074898949136,74.75030142112118L90.30733036938184,80.28823211638698L92.38391174927233,90.03916697759364L94.4604931291628,92.89977973195558L96.53707450905327,60.541869124800286L98.61365588894375,61.79982227397561L100.69023726883424,92.81450835703693L102.76681864872472,70.26239081519424L104.84340002861518,114.43741408004902L106.91998140850566,91.68199343637362L108.99656278839615,66.06282569273252L111.07314416828663,111.75335514928501L113.1497255481771,122.84517450944307L115.22630692806757,121.25637615410685L117.30288830795806,106.16523198811794L119.37946968784854,106.83615369228646L121.45605106773903,85.51770885525023L123.53263244762948,128.50082206585455L125.60921382751997,130.342414696986L127.68579520741045,131.5130856239489L129.76237658730093,90.19994888861008L131.83895796719142,113.36283446077387L133.9155393470819,92.24497343029769L135.99212072697236,108.98697313216113L138.06870210686284,135.35368945833838L140.1452834867533,138.51700271278915L142.22186486664378,95.44904748967767L144.29844624653427,120.85964528590532L146.37502762642475,103.03151611589807L148.45160900631524,134.02318121766424L150.52819038620572,144.30560949595358L152.6047717660962,102.83336536300305L154.68135314598666,98.99314795478392L156.75793452587715,104.75240066108394L158.83451590576763,125.99376063318029L160.9110972856581,148.18056232326094L162.98767866554857,104.7125558292992L165.06426004543906,142.13043089526798L167.14084142532954,128.61228454787306L169.21742280522002,148.14647094778994L171.2940041851105,111.65075184502321L173.37058556500097,150.24473642850023L175.44716694489145,153.31861349264108L177.52374832478193,107.17514962822517L179.6003297046724,145.6402253036975L181.67691108456287,108.64346889090194L183.75349246445336,115.86077909824449L185.83007384434384,132.01901766546854L187.90665522423433,119.88798383666037L189.98323660412478,132.86665062611917L192.05981798401527,116.24942364102995L194.13639936390575,140.2019066878935L196.21298074379624,135.2796387544396L198.28956212368672,160.6918108795093L200.36614350357718,158.14055374261403L202.44272488346766,138.29221717830237L204.51930626335815,118.40755655398004L206.59588764324863,135.12211999775033L208.6724690231391,161.18961365937167L210.74905040302957,160.04693716163683L212.82563178292006,120.32166849640939L214.90221316281054,114.99527034919618L216.97879454270102,161.4410339754502L219.0553759225915,132.60250687058067L221.13195730248196,125.65075731473448L223.20853868237245,149.47403089990527L225.2851200622629,145.83265122443953L227.3617014421534,142.45248132803388" fill="none"></path></g></g></g></g></g></g><g transform="translate(78, 177)" clip-path="url(#clip_1)"><clipPath id="clip_1"><rect width="251" height="22"></rect></clipPath><g><g><line x1="1.014331034091279" y1="0" x2="1.014331034091279" y2="5" style="visibility: inherit;" fill="rgb(0, 0, 0)" stroke="rgb(204, 204, 204)" stroke-width="1px"></line><line x1="21.78014483299606" y1="0" x2="21.78014483299606" y2="5" style="visibility: inherit;" fill="rgb(0, 0, 0)" stroke="rgb(204, 204, 204)" stroke-width="1px"></line><line x1="42.545958631900845" y1="0" x2="42.545958631900845" y2="5" style="visibility: inherit;" fill="rgb(0, 0, 0)" stroke="rgb(204, 204, 204)" stroke-width="1px"></line><line x1="63.311772430805625" y1="0" x2="63.311772430805625" y2="5" style="visibility: inherit;" fill="rgb(0, 0, 0)" stroke="rgb(204, 204, 204)" stroke-width="1px"></line><line x1="84.0775862297104" y1="0" x2="84.0775862297104" y2="5" style="visibility: inherit;" fill="rgb(0, 0, 0)" stroke="rgb(204, 204, 204)" stroke-width="1px"></line><line x1="104.84340002861518" y1="0" x2="104.84340002861518" y2="5" style="visibility: inherit;" fill="rgb(0, 0, 0)" stroke="rgb(204, 204, 204)" stroke-width="1px"></line><line x1="125.60921382751997" y1="0" x2="125.60921382751997" y2="5" style="visibility: inherit;" fill="rgb(0, 0, 0)" stroke="rgb(204, 204, 204)" stroke-width="1px"></line><line x1="146.37502762642475" y1="0" x2="146.37502762642475" y2="5" style="visibility: inherit;" fill="rgb(0, 0, 0)" stroke="rgb(204, 204, 204)" stroke-width="1px"></line><line x1="167.14084142532954" y1="0" x2="167.14084142532954" y2="5" style="visibility: inherit;" fill="rgb(0, 0, 0)" stroke="rgb(204, 204, 204)" stroke-width="1px"></line><line x1="187.90665522423433" y1="0" x2="187.90665522423433" y2="5" style="visibility: inherit;" fill="rgb(0, 0, 0)" stroke="rgb(204, 204, 204)" stroke-width="1px"></line><line x1="208.6724690231391" y1="0" x2="208.6724690231391" y2="5" style="visibility: inherit;" fill="rgb(0, 0, 0)" stroke="rgb(204, 204, 204)" stroke-width="1px"></line><line x1="229.43828282204387" y1="0" x2="229.43828282204387" y2="5" style="visibility: inherit;" fill="rgb(0, 0, 0)" stroke="rgb(204, 204, 204)" stroke-width="1px"></line><line x1="250.20409662094866" y1="0" x2="250.20409662094866" y2="5" style="visibility: inherit;" fill="rgb(0, 0, 0)" stroke="rgb(204, 204, 204)" stroke-width="1px"></line></g><g transform="translate(0, 8)"><text style="text-anchor: middle; visibility: hidden; font-family: &quot;Helvetica Neue&quot;, sans-serif; font-size: 12px; font-weight: 200;" x="1.014331034091279" y="0" dx="0em" dy="0.95em" fill="rgb(50, 49, 63)" stroke="none" stroke-width="1px">-10</text><text style="text-anchor: middle; visibility: inherit; font-family: &quot;Helvetica Neue&quot;, sans-serif; font-size: 12px; font-weight: 200;" x="21.78014483299606" y="0" dx="0em" dy="0.95em" fill="rgb(50, 49, 63)" stroke="none" stroke-width="1px">0</text><text style="text-anchor: middle; visibility: hidden; font-family: &quot;Helvetica Neue&quot;, sans-serif; font-size: 12px; font-weight: 200;" x="42.545958631900845" y="0" dx="0em" dy="0.95em" fill="rgb(50, 49, 63)" stroke="none" stroke-width="1px">10</text><text style="text-anchor: middle; visibility: inherit; font-family: &quot;Helvetica Neue&quot;, sans-serif; font-size: 12px; font-weight: 200;" x="63.311772430805625" y="0" dx="0em" dy="0.95em" fill="rgb(50, 49, 63)" stroke="none" stroke-width="1px">20</text><text style="text-anchor: middle; visibility: hidden; font-family: &quot;Helvetica Neue&quot;, sans-serif; font-size: 12px; font-weight: 200;" x="84.0775862297104" y="0" dx="0em" dy="0.95em" fill="rgb(50, 49, 63)" stroke="none" stroke-width="1px">30</text><text style="text-anchor: middle; visibility: inherit; font-family: &quot;Helvetica Neue&quot;, sans-serif; font-size: 12px; font-weight: 200;" x="104.84340002861518" y="0" dx="0em" dy="0.95em" fill="rgb(50, 49, 63)" stroke="none" stroke-width="1px">40</text><text style="text-anchor: middle; visibility: hidden; font-family: &quot;Helvetica Neue&quot;, sans-serif; font-size: 12px; font-weight: 200;" x="125.60921382751997" y="0" dx="0em" dy="0.95em" fill="rgb(50, 49, 63)" stroke="none" stroke-width="1px">50</text><text style="text-anchor: middle; visibility: inherit; font-family: &quot;Helvetica Neue&quot;, sans-serif; font-size: 12px; font-weight: 200;" x="146.37502762642475" y="0" dx="0em" dy="0.95em" fill="rgb(50, 49, 63)" stroke="none" stroke-width="1px">60</text><text style="text-anchor: middle; visibility: hidden; font-family: &quot;Helvetica Neue&quot;, sans-serif; font-size: 12px; font-weight: 200;" x="167.14084142532954" y="0" dx="0em" dy="0.95em" fill="rgb(50, 49, 63)" stroke="none" stroke-width="1px">70</text><text style="text-anchor: middle; visibility: inherit; font-family: &quot;Helvetica Neue&quot;, sans-serif; font-size: 12px; font-weight: 200;" x="187.90665522423433" y="0" dx="0em" dy="0.95em" fill="rgb(50, 49, 63)" stroke="none" stroke-width="1px">80</text><text style="text-anchor: middle; visibility: hidden; font-family: &quot;Helvetica Neue&quot;, sans-serif; font-size: 12px; font-weight: 200;" x="208.6724690231391" y="0" dx="0em" dy="0.95em" fill="rgb(50, 49, 63)" stroke="none" stroke-width="1px">90</text><text style="text-anchor: middle; visibility: inherit; font-family: &quot;Helvetica Neue&quot;, sans-serif; font-size: 12px; font-weight: 200;" x="229.43828282204387" y="0" dx="0em" dy="0.95em" fill="rgb(50, 49, 63)" stroke="none" stroke-width="1px">100</text><text style="text-anchor: middle; visibility: hidden; font-family: &quot;Helvetica Neue&quot;, sans-serif; font-size: 12px; font-weight: 200;" x="250.20409662094866" y="0" dx="0em" dy="0.95em" fill="rgb(50, 49, 63)" stroke="none" stroke-width="1px">110</text></g><line x1="0" y1="0" x2="251.96875" y2="0" fill="rgb(0, 0, 0)" stroke="rgb(204, 204, 204)" stroke-width="1px"></line></g></g></g></g></svg>